<?xml version="1.0" encoding="utf-8"?>
<!-- Generator: Adobe Illustrator 22.1.0, SVG Export Plug-In . SVG Version: 6.00 Build 0)  -->
<svg version="1.1" id="图层_1" xmlns="http://www.w3.org/2000/svg" xmlns:xlink="http://www.w3.org/1999/xlink" x="0px" y="0px"
	 viewBox="0 0 120 20" style="enable-background:new 0 0 120 20;" xml:space="preserve">
<style type="text/css">
	.st0{fill:#74706C;}
	.st1{fill:#A28875;}
</style>
<g>
	<path class="st0" d="M6.5,5.6V19H0.9V0.2h7.3c3.2,0,5.7,0.7,7.5,2.2c2.1,1.7,3.2,4.1,3.2,7.1c0,2.8-0.9,5.2-2.8,7
		c-1.8,1.8-4.2,2.7-7.1,2.7c-0.3,0-0.9,0-1.7-0.1v-5.5h0.9c3.3,0,4.9-1.4,4.9-4.1c0-2.6-1.6-3.8-4.8-3.8H6.5z"/>
	<path class="st0" d="M29.2,5.1v5.5c-0.4-0.2-0.7-0.3-1-0.3c-0.9,0-1.4,0.7-1.4,2.1V19h-5.1v-7.5c0-2,0.5-3.6,1.6-4.7
		c1.1-1.2,2.5-1.8,4.3-1.8C28,4.9,28.6,5,29.2,5.1z"/>
	<path class="st0" d="M38.9,13.8v5.3c-0.4,0.1-0.8,0.1-1.2,0.1c-2.1,0-3.8-0.7-5.2-2s-2.1-3.1-2.1-5.1c0-2,0.7-3.7,2.1-5.1
		C34,5.7,35.7,5,37.7,5c2.2,0,4,0.6,5.2,1.9c1.3,1.3,1.9,3.1,1.9,5.3V19h-5.1v-6.4c0-0.7-0.2-1.3-0.5-1.7c-0.4-0.4-0.8-0.6-1.4-0.6
		c-0.5,0-1,0.2-1.4,0.6c-0.4,0.4-0.6,0.9-0.6,1.4c0,0.6,0.2,1,0.5,1.4c0.4,0.4,0.8,0.5,1.4,0.5C38.1,14.2,38.5,14,38.9,13.8z"/>
	<path class="st0" d="M55.9,8.3v5.4h-2.3V19h-5.1V7.3c0-1.3,0.2-2.4,0.7-3.4c0.6-1.2,1.4-2.1,2.6-2.9c1.2-0.7,2.4-1.1,3.6-1.1l0.6,0
		v5.4c-0.1,0-0.2,0-0.3,0c-0.7,0-1.2,0.2-1.5,0.6s-0.5,1-0.5,1.8v0.5H55.9z"/>
	<path class="st0" d="M63.3,0.2v5.3h2.3v5.4h-2.3c0,1.1,0.2,1.8,0.5,2.3c0.3,0.4,1,0.6,1.9,0.6v5.4c-0.3,0-0.5,0-0.6,0
		c-1.2,0-2.3-0.3-3.3-0.8c-1-0.5-1.9-1.3-2.5-2.2c-0.8-1.2-1.2-2.8-1.2-4.7V0.2H63.3z"/>
	<path class="st0" d="M68.7,0.2h5.6v11.2c0,0.9,0.1,1.5,0.4,1.7c0.3,0.3,0.8,0.4,1.7,0.4h0.3V19h-1.5c-2,0-3.6-0.6-4.8-1.8
		c-1.1-1.2-1.7-2.8-1.7-4.9V0.2z"/>
	<path class="st0" d="M92.2,12.9h-7.8c-0.1-0.4-0.2-0.8-0.2-1.1c0-0.5,0.1-0.9,0.2-1.3h2.6c-0.2-1-0.8-1.5-1.7-1.5
		c-0.6,0-1.2,0.3-1.6,0.8c-0.4,0.5-0.6,1.2-0.6,2.1c0,0.9,0.2,1.6,0.6,2.2c0.4,0.6,0.9,0.8,1.5,0.8c0.5,0,1-0.3,1.5-0.8l2.9,3.5
		c-1.4,1.1-2.9,1.6-4.6,1.6c-2,0-3.7-0.7-5.1-2c-1.4-1.4-2.1-3.1-2.1-5.1c0-2,0.7-3.7,2.1-5.1c1.4-1.4,3.1-2.1,5.2-2.1
		c2,0,3.7,0.7,5,2c1.4,1.4,2,3,2,5C92.2,12.2,92.2,12.5,92.2,12.9z"/>
	<path class="st0" d="M107.1,19H102v-7.7c0-0.8-0.3-1.2-1-1.2c-0.6,0-1,0.4-1,1.2V19h-5.1v-7.6c0-1.8,0.6-3.3,1.8-4.5
		c1.2-1.2,2.6-1.8,4.3-1.8c2,0,3.5,0.7,4.7,2.1c0.9,1.1,1.4,2.7,1.4,4.6V19z"/>
	<path class="st1" d="M119.3,5.4v5.4c-0.7,0-1.2,0.1-1.5,0.4c-0.3,0.3-0.4,0.8-0.5,1.6c-0.2,2.7-1.3,4.5-3.1,5.6
		c-1,0.6-2.3,0.9-4.1,0.9h-0.7v-5.4h0.2c0.8,0,1.4-0.2,1.8-0.5s0.6-0.9,0.6-1.8c0.1-1.4,0.2-2.4,0.4-3c0.2-0.6,0.6-1.1,1.1-1.7
		c1-1,2.4-1.5,4.2-1.5H119.3z"/>
</g>
</svg>
