<?xml version="1.0" encoding="utf-8"?>
<!-- Generator: Adobe Illustrator 22.1.0, SVG Export Plug-In . SVG Version: 6.00 Build 0)  -->
<svg version="1.1" id="图层_1" xmlns="http://www.w3.org/2000/svg" xmlns:xlink="http://www.w3.org/1999/xlink" x="0px" y="0px"
	 viewBox="0 0 200 200" style="enable-background:new 0 0 200 200;" xml:space="preserve">
<style type="text/css">
	.st0{fill:#994545;}
</style>
<path class="st0" d="M178.9,108.8c-1.4,3.2-3.7,6.3-6.8,8.9l-4.1,3.4c-0.3,0.2-0.5,0.5-0.8,0.7l-7.9,6.6l-8.3,6.9L128,154.7
	c-0.3,0.3-0.7,0.5-1,0.8l-3.9,3.3c-7.1,5.9-15.6,7.2-22.9,4.3c-4.7-1.8-8.9-5.4-11.9-10.5l-0.4-0.7c-1.1-2.5-1.9-5.4-2.1-8.5
	l-0.1,0.1c0,0,3-11,5.3-22.7c-0.6,0.1-1.3,0.1-1.9,0.1H39.9c-11.5,0-20.8-9.3-20.8-20.8s9.3-20.8,20.8-20.8h49.3
	c0.6,0,1.2,0,1.8,0.1c-2.3-10.9-5.2-20.9-5.2-20.9c0,0,0,0,0,0c0-3.8,0.8-7.2,2.1-10.3l0.4-0.7c2.8-4.9,6.7-8.3,11.2-10.2
	c0.2-0.1,0.5-0.2,0.7-0.3c7.3-2.8,15.8-1.6,22.9,4.3l3.9,3.3l24.3,20.2l8.5,7v0l7.6,6.5l4.8,4.1c4.3,3.6,7,8.1,8.1,12.8
	C181.4,99.7,180.9,104.4,178.9,108.8z"/>
</svg>
